<svg width="46" height="46" viewBox="0 0 46 46" fill="none" xmlns="http://www.w3.org/2000/svg">
<path fill-rule="evenodd" clip-rule="evenodd" d="M23 45.5C35.4264 45.5 45.5 35.4264 45.5 23C45.5 10.5736 35.4264 0.5 23 0.5C10.5736 0.5 0.5 10.5736 0.5 23C0.5 35.4264 10.5736 45.5 23 45.5ZM34.9206 17.1005C35.8045 16.0398 35.6612 14.4634 34.6005 13.5794C33.5398 12.6955 31.9634 12.8388 31.0794 13.8995L20.332 26.7965L14.7678 21.2322C13.7915 20.2559 12.2085 20.2559 11.2322 21.2322C10.2559 22.2085 10.2559 23.7915 11.2322 24.7678L17.1836 30.7192L17.2485 30.7842L17.2486 30.7842C17.5498 31.086 17.9342 31.471 18.3132 31.7576C18.7775 32.1087 19.5483 32.5623 20.5914 32.515C21.6345 32.4677 22.3611 31.9461 22.7917 31.5544C23.1432 31.2347 23.4911 30.8164 23.7638 30.4886L23.8226 30.418L34.9206 17.1005Z" fill="#FFB20B"/>
</svg>
