<svg width="72" height="49" viewBox="0 0 72 49" fill="none" xmlns="http://www.w3.org/2000/svg">
<g clip-path="url(#clip0_234_1525)">
<path fill-rule="evenodd" clip-rule="evenodd" d="M56.1586 0.027832H45.914L51.0367 8.9736H51.0359L40.3164 27.6932L45.4387 36.6383H56.6339L61.7562 27.6932H50.5609L56.1586 17.9181L56.3963 18.3331L61.7562 27.6932L66.8785 36.6383L72.0009 27.6932L61.2808 8.97305L61.2823 8.97069H61.2796L56.1586 0.027832Z" fill="#1288E3"/>
<path fill-rule="evenodd" clip-rule="evenodd" d="M50.9877 27.219L45.4023 18.1112L50.836 8.62207L56.3226 17.903L50.9877 27.219Z" fill="url(#paint0_linear_234_1525)"/>
<path fill-rule="evenodd" clip-rule="evenodd" d="M51.0859 27.6935L56.1164 37.1244H66.9841L61.7553 27.6934L51.0859 27.6935Z" fill="url(#paint1_linear_234_1525)"/>
<path fill-rule="evenodd" clip-rule="evenodd" d="M56.495 18.3917L50.6401 8.28174L40.3164 27.6932L50.6878 27.7037L56.495 18.3917Z" fill="url(#paint2_linear_234_1525)"/>
<path fill-rule="evenodd" clip-rule="evenodd" d="M0.0136719 36.6385L20.9783 36.6383L41.9427 36.6385L31.4604 18.3331L20.9783 0.027832L10.496 18.3331L0.0136719 36.6385ZM15.3808 27.6931H26.5757L23.7771 22.8056L20.9783 17.9183L18.1796 22.8058L15.3808 27.6931Z" fill="#1288E3"/>
<path fill-rule="evenodd" clip-rule="evenodd" d="M26.0505 27.6935L21.0198 37.1244H10.1523L15.381 27.6934L26.0505 27.6935Z" fill="url(#paint3_linear_234_1525)"/>
<path fill-rule="evenodd" clip-rule="evenodd" d="M42.6259 18.5273L20.9785 17.9185L26.5758 27.6932L37.4453 27.688L42.6259 18.5273Z" fill="url(#paint4_linear_234_1525)"/>
<path fill-rule="evenodd" clip-rule="evenodd" d="M15.644 27.0857L10.0586 18.1231L15.4924 8.78516L20.9788 17.9182L15.644 27.0857Z" fill="url(#paint5_linear_234_1525)"/>
<path d="M24.0539 45.2005C24.0525 45.1672 24.0507 45.134 24.0487 45.1008L24.0539 45.2005ZM51.3038 45.2005C51.3022 45.1676 51.3005 45.1342 51.2986 45.1008L51.3038 45.2005ZM9.58806 47.0091L10.0336 48.9005H10.6751L9.12348 42.7753H8.39466L6.84414 48.9005H7.48458L7.93008 47.0091H9.58806ZM71.3896 43.3238H70.6426C70.0231 43.3238 69.6406 43.5993 69.6406 44.3983C69.6406 45.225 69.9685 45.6197 70.4968 45.6197H71.3896V43.3238ZM71.3896 48.8982V46.1709H70.7063L69.3976 48.8982L68.7245 48.8978L70.0504 46.1249C69.3034 45.868 69.0028 45.1515 69.0028 44.3983C69.0028 43.3105 69.7394 42.7864 70.3366 42.773H72V48.8982H71.3896ZM64.8387 48.89H64.2283V45.1331L64.2557 43.7461L64.2373 43.7278L62.4335 48.89H61.6682V42.7632H62.2786V46.5293L62.2514 47.898L62.2696 47.9163L64.0733 42.7632H64.8387V48.89ZM55.7942 46.162H56.7052C57.5435 46.162 58.1812 45.5326 58.1812 44.3905C58.1812 43.3419 57.5798 42.7632 56.5049 42.7632H55.1837V48.89H55.7942V46.162ZM55.7942 43.3143H56.4957C57.1516 43.3143 57.5435 43.6357 57.5435 44.3905C57.5435 45.1653 57.2155 45.597 56.6505 45.6061L55.7942 45.6153V43.3143ZM49.6285 42.6806C48.6563 42.6806 48.2443 43.4465 48.0699 44.2776L48.069 44.2827C48.0457 44.3954 48.0262 44.5088 48.0107 44.6228L48.01 44.6274L48.0028 44.6833V44.6836L47.9959 44.7377L47.995 44.7459L47.9896 44.7936L47.9882 44.8072C47.9765 44.9179 47.9677 45.027 47.9612 45.133L47.961 45.1357L47.9585 45.1791L47.9576 45.1979L47.9554 45.2399L47.9552 45.2428L47.9536 45.2787L47.9529 45.2959L47.9511 45.338L47.9507 45.3484L47.9491 45.3967V45.4001L47.9475 45.4509V45.4544L47.9464 45.5006L47.9461 45.5108L47.9453 45.5498L47.945 45.5662L47.9446 45.5977L47.9443 45.6201L47.9441 45.6449L47.9437 45.6727V45.6908L47.9434 45.7239V45.7794L47.9432 45.8219V46.0075L47.9434 46.0338V46.0494L47.9435 46.0821V46.0928L47.9439 46.1322L47.9441 46.1375L47.9446 46.1836V46.1839L47.9455 46.2309V46.2373L47.9464 46.2794L47.9468 46.2921L47.9479 46.3287L47.9484 46.3483L47.9495 46.3796L47.9497 46.385C47.9507 46.4173 47.9522 46.4503 47.9538 46.4837L47.9558 46.5246L47.9565 46.5371L47.957 46.5478L47.9596 46.5913L47.9632 46.6465C47.9682 46.7188 47.9743 46.7928 47.9819 46.8679L47.983 46.8774L47.9878 46.9235L47.9893 46.9371C47.9934 46.9726 47.9977 47.0082 48.0026 47.044L48.0046 47.0581C48.0197 47.1708 48.0388 47.2846 48.0625 47.3977L48.0636 47.4026L48.0755 47.4568L48.0766 47.4616C48.107 47.5955 48.1442 47.7278 48.1901 47.8552L48.1932 47.8643L48.2108 47.9109L48.2146 47.9211C48.2207 47.9365 48.2269 47.9523 48.2333 47.9679L48.2368 47.9761C48.2436 47.9924 48.2504 48.0087 48.2576 48.0249L48.2578 48.0254C48.2969 48.1142 48.341 48.1996 48.3903 48.2802L48.3908 48.2811C48.4 48.296 48.4094 48.3105 48.4189 48.3252L48.4225 48.3307C48.4313 48.3441 48.4403 48.3573 48.4495 48.3704L48.4565 48.3808L48.4826 48.4165L48.4909 48.4272L48.5206 48.4653L48.5212 48.4657C48.5788 48.5366 48.6423 48.602 48.7121 48.6604L48.7172 48.6648C48.7287 48.6746 48.7406 48.6838 48.7526 48.6931L48.7636 48.7016C48.7751 48.7103 48.787 48.7187 48.7989 48.7272L48.8102 48.7352C48.8227 48.7437 48.8353 48.7519 48.848 48.7602L48.8581 48.7668C48.8709 48.7748 48.8839 48.7824 48.897 48.79L48.9091 48.7967C49.1062 48.9078 49.343 48.9722 49.6285 48.9722C49.8195 48.9722 49.9885 48.9426 50.1386 48.8889L50.1403 48.8885C50.1934 48.8693 50.2439 48.847 50.2924 48.8225L50.3005 48.8181C50.3143 48.8112 50.3278 48.8036 50.3411 48.796L50.3519 48.7896C50.3653 48.782 50.3784 48.774 50.3914 48.7657L50.4016 48.7593C50.4142 48.7512 50.4265 48.743 50.4387 48.7345L50.4511 48.7258C50.4625 48.7176 50.474 48.7092 50.4851 48.7005L50.4976 48.6911C50.5089 48.6822 50.5201 48.6731 50.531 48.664L50.5386 48.6575C50.5913 48.6127 50.6405 48.5641 50.6864 48.5118L50.6927 48.5045C50.7031 48.4925 50.7132 48.4804 50.7233 48.468L50.7292 48.461C50.7386 48.4492 50.7478 48.4373 50.7568 48.4252L50.7659 48.4132C50.7748 48.4016 50.7834 48.3898 50.7917 48.3779L50.7992 48.3671C50.8082 48.3543 50.8172 48.341 50.8259 48.3276L50.8298 48.3218C50.8392 48.3076 50.8484 48.2927 50.8574 48.2782L50.859 48.2753C50.9067 48.1971 50.9494 48.1145 50.9875 48.0287L50.9931 48.0167L51.0107 47.975L51.0169 47.9604L51.0347 47.9158L51.0386 47.9056L51.0559 47.8599L51.0606 47.8468L51.0763 47.802L51.0804 47.79C51.1042 47.7196 51.1254 47.6479 51.1445 47.5755L51.1466 47.5675L51.1578 47.5242L51.1623 47.5055L51.1731 47.4603L51.1762 47.4468L51.1868 47.3993L51.19 47.3842L51.1992 47.3398L51.2024 47.3234L51.2116 47.2761L51.2122 47.2726C51.23 47.1774 51.2446 47.0819 51.2566 46.9877L51.2581 46.9777L51.2633 46.934L51.2656 46.9142L51.2703 46.8719L51.2723 46.8545L51.2762 46.8155L51.2786 46.7913L51.2818 46.7563L51.2824 46.7507L51.2865 46.7022L51.2872 46.6946L51.2915 46.6396V46.6391L51.2951 46.5845L51.2957 46.5779L51.2986 46.5302L51.2993 46.5171L51.3014 46.4768L51.3025 46.4574L51.304 46.4246L51.3045 46.414L51.3059 46.3768L51.3061 46.3732L51.3074 46.342L51.3079 46.3229L51.3085 46.3071L51.3095 46.2736L51.3106 46.2317L51.3108 46.2255L51.3117 46.1787L51.3124 46.1329L51.3126 46.1275L51.313 46.0886L51.3131 46.0778L51.3135 46.0458V46.03L51.3137 46.0044L51.3139 45.9843V45.6533L51.3137 45.6329L51.3135 45.6061V45.5907L51.3131 45.5574L51.313 45.5467L51.3126 45.507L51.3124 45.5017L51.3117 45.4555V45.4547L51.3108 45.4077L51.3106 45.4012L51.3095 45.3591L51.3083 45.3195L51.3079 45.3092L51.3074 45.2896L51.3063 45.2584L51.3058 45.2469L51.3043 45.2126L51.3038 45.2005C51.3022 45.1676 51.3005 45.1342 51.2986 45.1008L51.2957 45.0518L51.2953 45.0464L51.2915 44.9912V44.99L51.2872 44.9357L51.2865 44.9273L51.2824 44.8796V44.8773L51.2788 44.8397L51.2761 44.8121L51.2725 44.7769L51.2705 44.7587L51.2654 44.7137L51.2636 44.699L51.2584 44.6549L51.2563 44.639C51.2446 44.5483 51.2305 44.4579 51.214 44.368L51.2114 44.3542L51.2026 44.3085L51.1997 44.2945L51.1888 44.2415L51.1882 44.2395L51.1758 44.1831L51.1749 44.1795L51.1625 44.1277L51.1585 44.1119L51.147 44.0668L51.1454 44.0608C51.121 43.9687 51.0925 43.8777 51.0601 43.7882L51.0566 43.7789L51.0395 43.7336L51.035 43.7223C51.0289 43.7065 51.0224 43.6907 51.016 43.6749L51.0142 43.6708C50.9709 43.5663 50.9197 43.4654 50.8608 43.369L50.8583 43.365C50.8493 43.3505 50.8397 43.3358 50.8304 43.3212L50.8275 43.3171C50.818 43.3027 50.8082 43.2885 50.7982 43.2744L50.7953 43.2702C50.7853 43.2561 50.7751 43.2422 50.7647 43.2285L50.7622 43.225C50.7515 43.2111 50.7407 43.1974 50.7296 43.1839L50.7278 43.1817C50.6705 43.1113 50.6066 43.0467 50.5372 42.9886L50.5343 42.9862C50.5217 42.9756 50.5088 42.9653 50.4956 42.9554L50.4891 42.9505C50.4761 42.9406 50.4629 42.931 50.4495 42.9216L50.4439 42.9176C50.4298 42.9079 50.4154 42.8985 50.4009 42.8893L50.3982 42.8877C50.3831 42.8782 50.3676 42.8686 50.3519 42.8594H50.3516C50.1539 42.7463 49.9156 42.6806 49.6285 42.6806ZM49.6285 43.2592C50.7037 43.2592 50.6763 44.6646 50.6763 45.8219C50.6763 46.8873 50.6853 48.3936 49.6285 48.3936C48.7723 48.3936 48.5809 47.4752 48.5809 45.8219C48.5809 44.9217 48.5536 43.2592 49.6285 43.2592ZM43.135 48.89V43.3156H44.2921L44.6056 42.7679V42.7648H41.0269L41.0562 42.8164L41.3422 43.3156H42.5246V48.89H43.135ZM36.8327 46.9968L37.2782 48.8884H37.7429L37.9197 48.8882L36.3681 42.7632H35.6393L34.0888 48.8884H34.7294L35.1747 46.9968H36.8327ZM36.6869 46.4458H35.3205L35.9946 43.5802H36.0128L36.6869 46.4458ZM28.5444 46.162H29.4554C30.2936 46.162 30.9314 45.5326 30.9314 44.3905C30.9314 43.3419 30.33 42.7632 29.255 42.7632H27.9338V48.89H28.5444V46.162ZM28.5444 43.3143H29.2459C29.902 43.3143 30.2936 43.6357 30.2936 44.3905C30.2936 45.1653 29.9657 45.597 29.4008 45.6061L28.5444 45.6153V43.3143ZM22.3789 42.6806C21.4067 42.6806 20.9945 43.4465 20.8201 44.2776L20.8192 44.2827C20.7959 44.3954 20.7764 44.5088 20.7608 44.6228L20.7603 44.6274L20.7529 44.6833V44.6836L20.7463 44.7377L20.7452 44.7459L20.74 44.7936L20.7385 44.8072C20.727 44.9156 20.718 45.0242 20.7115 45.133L20.7113 45.1357L20.7088 45.1791L20.7077 45.1979L20.7056 45.2399L20.7054 45.2428L20.7038 45.2787L20.7031 45.2959L20.7014 45.338L20.7009 45.3484L20.6993 45.3967V45.4001L20.6978 45.4509L20.6977 45.4544L20.6966 45.5006L20.6964 45.5108L20.6957 45.5498L20.6953 45.5662L20.6948 45.5977L20.6946 45.6201L20.6942 45.6449L20.6941 45.6727L20.6939 45.6908L20.6937 45.7239V45.7357L20.6935 45.7738V45.86L20.6933 45.8912V46.0075L20.6935 46.0338V46.0494L20.6937 46.0821V46.0928L20.6942 46.1322V46.1375L20.6948 46.1836V46.1839L20.6957 46.2309V46.2373L20.6968 46.2794L20.6971 46.2921L20.698 46.3287L20.6986 46.3483L20.6996 46.3796L20.6998 46.385C20.7009 46.4173 20.7023 46.4503 20.704 46.4837L20.7059 46.5246L20.7067 46.5371L20.7072 46.5478L20.7099 46.5913L20.7133 46.6465C20.7184 46.7188 20.7245 46.7928 20.7322 46.8679L20.7331 46.8774L20.738 46.9235L20.7396 46.9371C20.7436 46.9726 20.7481 47.0082 20.7527 47.044L20.7547 47.0581C20.77 47.1708 20.7889 47.2846 20.8129 47.3977L20.8138 47.4026L20.8256 47.4568L20.8267 47.4616C20.8571 47.5955 20.8944 47.7278 20.9403 47.8552L20.9435 47.8643L20.961 47.9109L20.9648 47.9211L20.9835 47.9679L20.9869 47.9761C20.9938 47.9924 21.0006 48.0087 21.0078 48.0249L21.0082 48.0254C21.0472 48.1142 21.0911 48.1996 21.1406 48.2802L21.141 48.2811C21.1502 48.296 21.1595 48.3105 21.1691 48.3252L21.1727 48.3307C21.1815 48.3441 21.1905 48.3573 21.1997 48.3704L21.2069 48.3808C21.2153 48.3927 21.2242 48.4045 21.2328 48.4165L21.2411 48.4272L21.2708 48.4653L21.2713 48.4657C21.3289 48.5366 21.3926 48.602 21.4623 48.6604L21.4673 48.6648C21.479 48.6746 21.4909 48.6838 21.5028 48.6931L21.5138 48.7016C21.5255 48.7103 21.5372 48.7187 21.5491 48.7272L21.5604 48.7352C21.5728 48.7437 21.5854 48.7519 21.5982 48.7602L21.6083 48.7668C21.6211 48.7748 21.634 48.7824 21.6472 48.79L21.6594 48.7967C21.8563 48.9078 22.0934 48.9722 22.3789 48.9722C22.5697 48.9722 22.7389 48.9426 22.889 48.8889L22.8904 48.8885C22.9435 48.8693 22.9941 48.847 23.0425 48.8225L23.0506 48.8181C23.0645 48.8112 23.078 48.8036 23.0915 48.796L23.1023 48.7896C23.1156 48.782 23.1287 48.774 23.1415 48.7657L23.1518 48.7593C23.1644 48.7512 23.1766 48.743 23.1889 48.7345L23.2013 48.7258C23.2128 48.7176 23.2241 48.7092 23.2353 48.7005L23.2477 48.6911C23.2591 48.6822 23.2702 48.6731 23.2812 48.664L23.2888 48.6575C23.3415 48.6127 23.3906 48.5641 23.4365 48.5118L23.4428 48.5045C23.4533 48.4925 23.4634 48.4804 23.4734 48.468L23.4794 48.461C23.4888 48.4492 23.4979 48.4373 23.5069 48.4252L23.5163 48.4132C23.5249 48.4016 23.5336 48.3898 23.5418 48.3779L23.5494 48.3671C23.5584 48.3543 23.5674 48.341 23.576 48.3276L23.58 48.3218C23.5894 48.3076 23.5985 48.2927 23.6075 48.2782L23.6092 48.2753C23.657 48.1971 23.6995 48.1145 23.7377 48.0287L23.7433 48.0167L23.7609 47.975L23.767 47.9604L23.7848 47.9158L23.7888 47.9056C23.7946 47.8906 23.8005 47.8753 23.8061 47.8599L23.8108 47.8468L23.8266 47.802L23.8306 47.79C23.8543 47.7196 23.8756 47.6479 23.8948 47.5755L23.897 47.5675L23.908 47.5242L23.9126 47.5055L23.9233 47.4603L23.9265 47.4468L23.9369 47.3993L23.9402 47.3842L23.9494 47.3398L23.9526 47.3234L23.962 47.2761L23.9625 47.2726C23.9801 47.1774 23.9947 47.0819 24.007 46.9877L24.0082 46.9777L24.0134 46.934L24.016 46.9142L24.0206 46.8719L24.0224 46.8545L24.0264 46.8155L24.0287 46.7913L24.0322 46.7563L24.0325 46.7507L24.0368 46.7022L24.0374 46.6946L24.0417 46.6396V46.6391L24.0455 46.5845L24.0458 46.5779L24.0487 46.5302L24.0494 46.5171L24.0516 46.4768L24.0527 46.4574L24.0543 46.4246L24.0547 46.414L24.0563 46.3768V46.3732L24.0575 46.342L24.0583 46.3229L24.0586 46.3071L24.0597 46.2736L24.0608 46.2317L24.061 46.2255L24.0619 46.1787L24.0628 46.1329V46.1275L24.0633 46.0886V46.0778L24.0637 46.0458V46.03L24.0638 46.0044L24.064 45.9843V45.9645L24.0642 45.9406V45.6985L24.064 45.6738V45.6533L24.0638 45.6329L24.0637 45.6061V45.5907L24.0633 45.5574V45.5467L24.0628 45.507V45.5017L24.0619 45.4555V45.4547L24.061 45.4077L24.0608 45.4012L24.0597 45.3591L24.0586 45.3195L24.0583 45.3092L24.0575 45.2896L24.0565 45.2584L24.0559 45.2469L24.0545 45.2126L24.0539 45.2005C24.0525 45.1672 24.0508 45.134 24.0487 45.1008L24.0458 45.0518L24.0455 45.0464L24.0417 44.9912V44.99L24.0374 44.9357L24.0368 44.9273L24.0327 44.8796L24.0325 44.8773L24.0289 44.8397L24.0262 44.8121L24.0226 44.7769L24.0206 44.7587L24.0156 44.7137L24.014 44.699L24.0086 44.6549L24.0064 44.639C23.9948 44.5483 23.9807 44.4579 23.9641 44.368L23.9616 44.3542L23.9528 44.3085L23.9499 44.2945L23.9389 44.2415L23.9386 44.2395L23.926 44.1831L23.9251 44.1795L23.9126 44.1277L23.9087 44.1119L23.8972 44.0668L23.8955 44.0608C23.8712 43.9687 23.8427 43.8777 23.8102 43.7882L23.8068 43.7789L23.7897 43.7336L23.7854 43.7223C23.7791 43.7065 23.7728 43.6907 23.7661 43.6749L23.7643 43.6708C23.7211 43.5663 23.6698 43.4654 23.611 43.369L23.6086 43.365C23.5994 43.3505 23.5901 43.3358 23.5805 43.3212L23.5777 43.3171C23.5682 43.3027 23.5585 43.2885 23.5485 43.2744L23.5456 43.2702C23.5356 43.2561 23.5253 43.2422 23.5148 43.2285L23.5123 43.225C23.5017 43.2112 23.4909 43.1975 23.4799 43.1839L23.4779 43.1817C23.4206 43.1113 23.3568 43.0467 23.2873 42.9886L23.2844 42.9862C23.2718 42.9756 23.2589 42.9653 23.2457 42.9554L23.2393 42.9505C23.2262 42.9406 23.213 42.931 23.1997 42.9216L23.1941 42.9176C23.1799 42.908 23.1656 42.8984 23.1512 42.8893L23.1485 42.8877C23.1332 42.8782 23.1178 42.8686 23.1021 42.8594H23.1017C22.9041 42.7463 22.666 42.6806 22.3789 42.6806ZM22.3789 43.2592C23.4538 43.2592 23.4265 44.6646 23.4265 45.8219C23.4265 46.8873 23.4356 48.3936 22.3789 48.3936C21.5224 48.3936 21.3313 47.4752 21.3313 45.8219C21.3313 44.9217 21.3039 43.2592 22.3789 43.2592ZM14.4365 45.1669H14.4367V43.3149H14.2598L13.9739 42.8156L13.9444 42.7643L17.1509 42.7632L16.8377 43.3149H15.0469V45.1985H15.9487C16.7663 45.2183 17.4339 45.7812 17.4339 47.0347V47.053C17.4339 48.3065 16.7663 48.8695 15.9487 48.8894H14.26L13.9448 48.3388H14.4365V45.1669ZM15.0469 45.7489V48.3388H15.876C16.4227 48.3388 16.7962 47.9349 16.7962 47.044C16.7962 46.1531 16.4227 45.7489 15.876 45.7489H15.0469ZM3.18942 48.9005H3.83094L2.27934 42.7753H1.55052L0 48.9005H0.64044C1.25802 46.2783 1.19808 46.6006 1.90584 43.5925H1.92402C2.51856 46.12 2.66058 46.6552 3.18942 48.9005ZM9.44226 46.458H8.07588L8.74998 43.5925H8.76816L9.44226 46.458Z" fill="#1288E3"/>
</g>
<defs>
<linearGradient id="paint0_linear_234_1525" x1="52.4535" y1="17.2297" x2="49.2631" y2="18.5923" gradientUnits="userSpaceOnUse">
<stop stop-color="#0761A6"/>
<stop offset="0.42" stop-color="#0C74C4"/>
<stop offset="1" stop-color="#1288E3"/>
</linearGradient>
<linearGradient id="paint1_linear_234_1525" x1="60.1952" y1="31.5076" x2="57.861" y2="33.2907" gradientUnits="userSpaceOnUse">
<stop stop-color="#0761A6"/>
<stop offset="0.42" stop-color="#0C74C4"/>
<stop offset="1" stop-color="#1288E3"/>
</linearGradient>
<linearGradient id="paint2_linear_234_1525" x1="43.6437" y1="23.5745" x2="53.2522" y2="12.5051" gradientUnits="userSpaceOnUse">
<stop stop-color="#0761A6"/>
<stop offset="0.35" stop-color="#1288E3"/>
<stop offset="0.72" stop-color="#1288E3"/>
<stop offset="1" stop-color="#0761A6"/>
</linearGradient>
<linearGradient id="paint3_linear_234_1525" x1="16.6553" y1="31.5872" x2="19.5589" y2="33.21" gradientUnits="userSpaceOnUse">
<stop stop-color="#0761A6"/>
<stop offset="0.42" stop-color="#0C74C4"/>
<stop offset="1" stop-color="#1288E3"/>
</linearGradient>
<linearGradient id="paint4_linear_234_1525" x1="31.7421" y1="24.6799" x2="31.8562" y2="20.9275" gradientUnits="userSpaceOnUse">
<stop stop-color="#0761A6"/>
<stop offset="0.42" stop-color="#0C74C4"/>
<stop offset="1" stop-color="#1288E3"/>
</linearGradient>
<linearGradient id="paint5_linear_234_1525" x1="17.2956" y1="17.007" x2="13.7294" y2="18.8403" gradientUnits="userSpaceOnUse">
<stop stop-color="#0761A6"/>
<stop offset="0.42" stop-color="#0C74C4"/>
<stop offset="1" stop-color="#1288E3"/>
</linearGradient>
<clipPath id="clip0_234_1525">
<rect width="72" height="49" fill="white"/>
</clipPath>
</defs>
</svg>
