<?xml version="1.0" encoding="utf-8"?><svg viewBox="0 0 43 61" xmlns="http://www.w3.org/2000/svg" xmlns:xlink="http://www.w3.org/1999/xlink"><style>:root>svg{display:none}:root>svg:target{display:block}</style><svg viewBox="0 0 43 61" id="logo" xmlns="http://www.w3.org/2000/svg"><path d="M4.592 7.575h5.994c0-.172-.057-.486-.172-.657-.545-.915-2.438-.772-3.671-1-1.463-.258-4.417-.744-4.417-.744l-.258-.057v.143a2.558 2.558 0 002.438 2.315h.086zm4.388 6.06l-.143-.343c-.258-.743-.287-1.887-.115-2.601l-3.528-.029.029.114a3.557 3.557 0 002.782 2.745c.143 0 .746.114.975.114zm28.568-3.001l-3.241.028c.172.8.143 2.087-.201 2.801l-.058.143.574-.057c1.606-.143 2.868-1.286 3.184-2.801l.029-.114h-.287zm1.807-2.43h-6.712c.316.629.975 1.229 1.377 1.83l.057.114h3.098c.172 0 .373-.058.43-.058a2.592 2.592 0 002.008-1.772v-.114h-.258zm-4.704 8.375c-.803 0-1.55-.371-2.266-.943l-.574-.686-2.868-3.287c-.2-.172-.373-.343-.574-.515-1.75-1.915-3.872-3.602-6.97-3.602-2.409 0-4.216 1.03-5.736 2.402-.516.428-.975.914-1.405 1.372l-.23.2-3.413 3.916-.115.143c-.717.6-1.462 1-2.294 1h-.029l.029.029h-.029c0 .4.287.714.66.8H34.02c.344-.114.63-.457.63-.829zM22.719 50.738c-.545-.372-1.176-.743-1.778-1.115a52.5 52.5 0 01-2.352-1.458c-2.553 1.83-4.044 3.945-3.93 5.803.201 3.059 4.102 4.43 4.102 4.43s-.144-.085-.344-.228c.315.143.516.229.516.229s-2.037-1.058-2.18-3.602c-.057-1.115.717-2.658 2.323-3.945a9.46 9.46 0 011.176-.829l.23 9.948c0 .572.459 1.029 1.032 1.029.574 0 1.004-.457 1.004-1.029v-.143l.201-9.09zm-2.84-15.093c-.2-.086-.344-.2-.516-.286.172.115.344.2.517.286zm-1.405-.772l.287.143-.086-.028c.401.229 1.004.543 1.233.686l.086.057c1.148.657 2.209 1.315 3.04 2.03 1.349 1.143 2.209 2.4 2.066 3.858-.058.715-.631 1.83-1.865 2.973l-.057 2.487.086.057c.029.029.316.229.602.43 2.696-1.802 5.02-4.06 4.274-7.89-.143-.8-.488-1.544-.975-2.287-.631-.915-1.52-1.8-2.438-2.601-1.434-1.23-3.098-2.316-4.962-3.459-.46-.286-.947-.6-1.434-.886-.258-.143-.488-.315-.746-.458a83.648 83.648 0 00-1.664-1.029c-6.97-4.373.803-6.746.144-3.601.86-.2 3.183-1.973 1.262-4.145-1.148-1.315-4.56-2.058-6.999.143-.43.4-.774.8-1.032 1.229-1.836 2.544-.918 5.688 1.663 7.947.115.085.23.2.345.285 1.778 1.401 4.503 2.659 7.084 4.03l.086.03zm1.004-17.122l.029.114v.058l.315 12.949a52.816 52.816 0 013.356 2.172l.057-1.915.316-13.235.029-.114h-4.102v-.029zm13.395 3.83c-.201-.171-.402-.314-.603-.457-2.38-1.83-5.536-1.086-6.625.172-1.492 1.715-.345 3.201.602 3.83.315.257.66.429.889.486l-.029-.171c-.143-1.344 1.32-1.544 2.295-.944.946.772 1.061 2.43-2.352 4.574-1.176.743-2.352 1.458-3.5 2.172l-.085 2.144c.516.372 1.032.772 1.52 1.2l.029.03c2.61-1.344 5.306-2.573 7.027-4.06 2.954-2.63 3.757-6.346.832-8.976zm7.744-16.407c-1.434.229-2.897.486-4.331.714-1.205.23-3.098.115-3.672 1-.114.201-.172.373-.172.573v.085h6.11c1.262-.057 2.265-1.029 2.438-2.23l.028-.228-.401.086zm-29.37 2.544a2.13 2.13 0 01-.775 1.658l-.287.257c-.631.658-1.033 1.515-1.033 2.516 0 .857.316 1.658.803 2.258l.488.486.029.057 3.24-3.716-.057-.286c0-.171.058-.314.144-.457a4.612 4.612 0 00.746-2.487 4.588 4.588 0 00-3.04-4.317l-.288-.085L.547.086l-.2-.057L.29.2C.117.543.03.943.003 1.372a3.044 3.044 0 002.036 3.001l.144.03c.229.056.43.113.688.113 1.864.315 6.195.972 6.654 1.058a2.203 2.203 0 011.721 2.144zM42.738.258L42.653 0 31.811 3.602l-.287.085a4.56 4.56 0 00-3.04 4.317c0 .914.258 1.772.746 2.487a.789.789 0 01.143.457.928.928 0 01-.114.4v.029l2.868 3.287c.114.143.23.286.315.4l.144-.171.487-.486c.517-.63.803-1.4.803-2.258 0-.972-.401-1.858-1.032-2.516l-.287-.257c-.459-.4-.774-1-.774-1.658 0-1.03.717-1.887 1.692-2.144.459-.057 4.818-.743 6.654-1.058.23 0 .832-.171.832-.171a3.044 3.044 0 002.036-3.002A2.42 2.42 0 0042.74.257zM19.966 36.16v1.944l.143 6.688c.717.658 1.635 1.287 2.696 2.001l.057-2.544h.03l.143-6.003c-.89-.771-2.008-1.457-3.07-2.086zm-1.95-1.058c-1.78 1.515-3.041 3.087-3.385 4.86-.746 3.83 1.577 6.117 4.302 7.946 1.778 1.2 3.757 2.173 5.134 3.287.172.143.344.286.516.458h-.028c1.319 1.2 1.95 2.544 1.864 3.573-.086 1.543-.86 2.515-1.463 3.087-.2.114-.401.2-.545.286-.143.086-.2.143-.2.143s.229-.086.573-.258c-.23.172-.373.23-.373.23l.144-.058c-.201.143-.316.2-.316.2s1.32-.486 2.495-1.486c.89-.715 1.693-1.744 1.779-3.087.114-1.744-1.205-3.717-3.5-5.46-.2-.143-.43-.286-.63-.458-.058-.028-.345-.257-.66-.457l-.143-.086c-.23-.171-.43-.285-.46-.314-1.49-.972-2.724-1.858-3.613-2.744-1.033-1-1.635-1.973-1.635-3.002-.029-1.257.688-2.43 1.75-3.458l.028-2.344c-.344-.2-1.061-.6-1.377-.743l-.258-.115zM6.312 10.148h2.581l.086-.115c.402-.6 1.061-1.2 1.377-1.83h-6.97l.029.115a2.59 2.59 0 002.323 1.801l.574.029z"/></svg></svg>