<svg width="590" height="679" viewBox="0 0 590 679" fill="none" xmlns="http://www.w3.org/2000/svg">
<g clip-path="url(#clip0_234_1490)">
<path opacity="0.5" d="M386.078 204.821L524.275 2.58587e-07L415.395 -4.50073e-06C389.714 -0.00148054 364.425 6.30643 341.745 18.3706C319.065 30.4348 299.687 47.8869 285.31 69.1965L147.095 274.018L255.993 274.018C281.674 274.018 306.963 267.71 329.642 255.646C352.322 243.582 371.7 226.13 386.078 204.821Z" fill="#1288E3"/>
<path d="M85.4826 432.424L154.581 330.009L100.137 330.009C87.2968 330.011 74.6531 333.166 63.3141 339.199C51.975 345.231 42.2868 353.957 35.0987 364.612L-33.9999 467.018L20.4445 467.018C33.2838 467.018 45.927 463.864 57.266 457.833C68.605 451.802 78.2936 443.077 85.4826 432.424Z" fill="#1A4C9B"/>
<path d="M590 369.933L446.12 369.933C413.485 369.934 381.349 377.952 352.528 393.283C323.707 408.615 299.082 430.792 280.811 457.871L99.8964 726L349.713 726L590 369.933Z" fill="#1A4C9B"/>
<path opacity="0.67" d="M590 371.163L589.588 370.552L464.654 555.704L579.561 726L590 726L590 371.163Z" fill="#1288E3"/>
</g>
<defs>
<clipPath id="clip0_234_1490">
<rect width="726" height="624" fill="white" transform="translate(590) rotate(90)"/>
</clipPath>
</defs>
</svg>
