<svg width="216" height="425" viewBox="0 0 216 425" fill="none" xmlns="http://www.w3.org/2000/svg">
<g clip-path="url(#clip0_234_1831)">
<path opacity="0.5" d="M96.7186 119.902L177.555 0.000183257L113.867 0.000180473C98.8454 -0.000683596 84.0529 3.69197 70.7866 10.7543C57.5203 17.8167 46.1854 28.0331 37.7758 40.5078L-43.0708 160.41L20.6273 160.41C35.6489 160.41 50.4413 156.718 63.7075 149.655C76.9737 142.593 88.3087 132.377 96.7186 119.902Z" fill="#1288E3"/>
<path d="M216 216.559L131.839 216.559C112.75 216.559 93.9523 221.253 77.094 230.228C60.2358 239.203 45.8317 252.186 35.1446 268.038L-70.6792 425L75.4474 425L216 216.559Z" fill="#1A4C9B"/>
<path opacity="0.67" d="M216 217.279L215.759 216.921L142.681 325.309L209.894 425L216 425L216 217.279Z" fill="#1288E3"/>
</g>
<defs>
<clipPath id="clip0_234_1831">
<rect width="425" height="365" fill="white" transform="translate(216 0.000183105) rotate(90)"/>
</clipPath>
</defs>
</svg>
