<svg width="332" height="386" viewBox="0 0 332 386" fill="none" xmlns="http://www.w3.org/2000/svg">
<g clip-path="url(#clip0_234_1506)">
<path opacity="0.4" d="M223.503 108.899L297.031 1.37486e-07L239.101 -2.39471e-06C225.437 -0.000787174 211.982 3.35301 199.915 9.76731C187.849 16.1816 177.538 25.4605 169.889 36.7904L96.352 145.69L154.291 145.69C167.955 145.69 181.41 142.336 193.476 135.922C205.543 129.508 215.853 120.229 223.503 108.899Z" fill="#137CCD"/>
<path d="M63.5709 229.911L100.335 175.459L71.3677 175.459C64.5361 175.46 57.809 177.138 51.7761 180.345C45.7431 183.553 40.5885 188.192 36.7641 193.857L3.49628e-05 248.304L28.9673 248.304C35.7984 248.304 42.5253 246.627 48.5582 243.421C54.5911 240.214 59.7459 235.575 63.5709 229.911Z" fill="#032D6C"/>
<path d="M332 196.686L255.448 196.686C238.085 196.687 220.987 200.949 205.653 209.101C190.319 217.252 177.217 229.044 167.496 243.441L71.2397 386L204.155 386L332 196.686Z" fill="#032D6C"/>
<path opacity="0.4" d="M332 197.34L331.781 197.016L265.31 295.457L326.446 386L332 386L332 197.34Z" fill="#137CCD"/>
</g>
<defs>
<clipPath id="clip0_234_1506">
<rect width="386" height="332" fill="white" transform="translate(332) rotate(90)"/>
</clipPath>
</defs>
</svg>
