<svg width="239" height="287" viewBox="0 0 239 287" fill="none" xmlns="http://www.w3.org/2000/svg">
<g clip-path="url(#clip0_234_1539)">
<path d="M160.053 237.107L126.357 287L152.907 287C159.168 287.001 165.333 285.466 170.862 282.529C176.391 279.592 181.117 275.343 184.623 270.154L218.319 220.249L191.769 220.249C185.508 220.249 179.342 221.786 173.812 224.725C168.283 227.664 163.558 231.916 160.053 237.107Z" fill="#E79E00"/>
<path d="M-7.5829e-06 173.477L70.1636 173.477C86.078 173.476 101.749 169.57 115.804 162.101C129.858 154.631 141.867 143.826 150.776 130.633L239 0L117.156 -5.32599e-06L-7.5829e-06 173.477Z" fill="#1A4C9B"/>
<path d="M61.1252 82.9687L5.09066 -2.44935e-06L1.90735e-05 -2.67187e-06L1.15166e-05 172.882L0.200977 173.179L61.1252 82.9687Z" fill="#E79E00"/>
</g>
<defs>
<clipPath id="clip0_234_1539">
<rect width="287" height="239" fill="white" transform="translate(239) rotate(90)"/>
</clipPath>
</defs>
</svg>
